# xmcd
#
# Track frame offsets:
#	217
#	20202
#	37185
#	51640
#	66970
#	84770
#	101637
#	119472
#	136760
#	152315
#	165062
#	177292
#	196017
#	213590
#	228347
#	246780
#	265035
#	280312
#	296597
#	309115
#
# Disc length: 4332
#
# Revision: 4
# Processed by: cddbd v1.5.1PL0 Copyright (c) Steve Scherf et al.
# Submitted via: audiograbber 1.83.01
# Normalized: r3:DSETVAR1
#
DISCID=1110ea14
DTITLE=Various Artist - Go West
DYEAR=1994
DGENRE=Country
TTITLE0=John Michael Montgomery - I swear
TTITLE1=Wynonna - Tell me why
TTITLE2=Allan Jackson - Summertime blues
TTITLE3=Billy Ray Cyrus - Achy breaky heart
TTITLE4=Michelle Wright - Take it like a man
TTITLE5=Vince Gill - Tryin' to get over you
TTITLE6=Clay Walker - Where do I fit in the picture?
TTITLE7=The Mavericks - What a crying shame
TTITLE8=Reba McEntire - Why haven't I heard from you
TTITLE9=Shenandoah - If Bubba can dance (I can too)
TTITLE10=Clint Black - A good run of bad luck
TTITLE11=Tim McGraw - Don't take the girl
TTITLE12=John Berry - Your love amazes me
TTITLE13=Linda Davis - If promises were gold
TTITLE14=Suzy Bogguss - Hey Cinderella
TTITLE15=Martina McBride - Life #9
TTITLE16=Tanya Tucker - Hangin' in
TTITLE17=Brooks and Dunn - That ain't no way to go
TTITLE18=Trisha Yearwood - Xxx's and Ooo's
TTITLE19=Radney Foster - Nobody wins
EXTD=
EXTT0=
EXTT1=
EXTT2=
EXTT3=
EXTT4=
EXTT5=
EXTT6=
EXTT7=
EXTT8=
EXTT9=
EXTT10=
EXTT11=
EXTT12=
EXTT13=
EXTT14=
EXTT15=
EXTT16=
EXTT17=
EXTT18=
EXTT19=
PLAYORDER=
